<?xml version="1.0" encoding="UTF-8"?>
<svg version="1.1" xmlns="http://www.w3.org/2000/svg" width="560" height="400">
<path d="M0 0 C2.05580906 -0.00461264 4.11161482 -0.01096799 6.16741371 -0.01890898 C11.79939815 -0.03557534 17.43111075 -0.02736803 23.06309605 -0.0149641 C29.14362473 -0.00590499 35.22410703 -0.01988764 41.30462646 -0.03088379 C52.52194158 -0.04763732 63.73916989 -0.04619293 74.95648319 -0.03523792 C85.3200581 -0.02516665 95.68360137 -0.0225531 106.04718018 -0.02732849 C106.73522836 -0.02763403 107.42327655 -0.02793957 108.13217469 -0.02825437 C110.92534635 -0.02949977 113.71851801 -0.03077338 116.51168964 -0.03209343 C142.70162119 -0.04432318 168.89149775 -0.03324551 195.08142081 -0.01170584 C218.33800141 0.0072759 241.59449439 0.00557736 264.85107422 -0.0135498 C290.99379762 -0.0349789 317.13647245 -0.04345577 343.27920341 -0.03110075 C346.06721877 -0.02981792 348.85523414 -0.02856656 351.64324951 -0.02732849 C352.67293319 -0.02685403 352.67293319 -0.02685403 353.72341855 -0.02636998 C364.07923655 -0.02182445 374.43501939 -0.02713305 384.79083252 -0.0372467 C396.56855199 -0.04869183 408.34618784 -0.04542281 420.12390089 -0.02412373 C426.13234036 -0.01361582 432.14060209 -0.00948731 438.14904022 -0.02272034 C443.65122543 -0.03465506 449.15306841 -0.02806343 454.65522265 -0.00681013 C456.64363287 -0.00234871 458.63207211 -0.00459994 460.62046361 -0.01431328 C475.19712626 -0.0800482 486.79274055 0.95689578 497.84521484 11.50793457 C506.65372437 20.73506634 509.47095786 30.35837781 509.31591797 42.87268066 C508.84771013 54.69990964 504.29684534 63.34900564 495.77880859 71.48059082 C484.22326539 81.21701452 472.04002831 81.08596725 457.69042969 81.01586914 C455.63462063 81.02048178 453.57881487 81.02683714 451.52301598 81.03477812 C445.89103154 81.05144449 440.25931894 81.04323717 434.62733364 81.03083324 C428.54680496 81.02177413 422.46632266 81.03575678 416.38580322 81.04675293 C405.1684881 81.06350647 393.9512598 81.06206207 382.7339465 81.05110706 C372.37037158 81.04103579 362.00682832 81.03842224 351.64324951 81.04319763 C350.95520132 81.04350317 350.26715314 81.04380871 349.558255 81.04412351 C346.76508333 81.04536891 343.97191168 81.04664252 341.17874005 81.04796257 C314.9888085 81.06019232 288.79893194 81.04911465 262.60900888 81.02757498 C239.35242828 81.00859324 216.0959353 81.01029178 192.83935547 81.02941895 C166.69663207 81.05084804 140.55395724 81.05932491 114.41122627 81.04696989 C111.62321092 81.04568706 108.83519555 81.0444357 106.04718018 81.04319763 C105.0174965 81.04272317 105.0174965 81.04272317 103.96701114 81.04223912 C93.61119314 81.03769359 83.2554103 81.04300219 72.89959717 81.05311584 C61.1218777 81.06456097 49.34424185 81.06129195 37.5665288 81.03999287 C31.55808932 81.02948496 25.5498276 81.02535645 19.54138947 81.03858948 C14.03920426 81.0505242 8.53736127 81.04393257 3.03520703 81.02267927 C1.04679681 81.01821785 -0.94164242 81.02046908 -2.93003392 81.03018242 C-17.50669657 81.09591734 -29.10231086 80.05897336 -40.15478516 69.50793457 C-48.96329469 60.2808028 -51.78052817 50.65749133 -51.62548828 38.14318848 C-51.15728044 26.3159595 -46.60641566 17.6668635 -38.08837891 9.53527832 C-26.53283571 -0.20114538 -14.34959862 -0.07009811 0 0 Z " fill="#FFFFFF" transform="translate(51.15478515625,319.4920654296875)"/>
<path d="M0 0 C2.05580906 -0.00461264 4.11161482 -0.01096799 6.16741371 -0.01890898 C11.79939815 -0.03557534 17.43111075 -0.02736803 23.06309605 -0.0149641 C29.14362473 -0.00590499 35.22410703 -0.01988764 41.30462646 -0.03088379 C52.52194158 -0.04763732 63.73916989 -0.04619293 74.95648319 -0.03523792 C85.3200581 -0.02516665 95.68360137 -0.0225531 106.04718018 -0.02732849 C106.73522836 -0.02763403 107.42327655 -0.02793957 108.13217469 -0.02825437 C110.92534635 -0.02949977 113.71851801 -0.03077338 116.51168964 -0.03209343 C142.70162119 -0.04432318 168.89149775 -0.03324551 195.08142081 -0.01170584 C218.33800141 0.0072759 241.59449439 0.00557736 264.85107422 -0.0135498 C290.99379762 -0.0349789 317.13647245 -0.04345577 343.27920341 -0.03110075 C346.06721877 -0.02981792 348.85523414 -0.02856656 351.64324951 -0.02732849 C352.67293319 -0.02685403 352.67293319 -0.02685403 353.72341855 -0.02636998 C364.07923655 -0.02182445 374.43501939 -0.02713305 384.79083252 -0.0372467 C396.56855199 -0.04869183 408.34618784 -0.04542281 420.12390089 -0.02412373 C426.13234036 -0.01361582 432.14060209 -0.00948731 438.14904022 -0.02272034 C443.65122543 -0.03465506 449.15306841 -0.02806343 454.65522265 -0.00681013 C456.64363287 -0.00234871 458.63207211 -0.00459994 460.62046361 -0.01431328 C475.19712626 -0.0800482 486.79274055 0.95689578 497.84521484 11.50793457 C506.65372437 20.73506634 509.47095786 30.35837781 509.31591797 42.87268066 C508.84771013 54.69990964 504.29684534 63.34900564 495.77880859 71.48059082 C484.22326539 81.21701452 472.04002831 81.08596725 457.69042969 81.01586914 C455.63462063 81.02048178 453.57881487 81.02683714 451.52301598 81.03477812 C445.89103154 81.05144449 440.25931894 81.04323717 434.62733364 81.03083324 C428.54680496 81.02177413 422.46632266 81.03575678 416.38580322 81.04675293 C405.1684881 81.06350647 393.9512598 81.06206207 382.7339465 81.05110706 C372.37037158 81.04103579 362.00682832 81.03842224 351.64324951 81.04319763 C350.95520132 81.04350317 350.26715314 81.04380871 349.558255 81.04412351 C346.76508333 81.04536891 343.97191168 81.04664252 341.17874005 81.04796257 C314.9888085 81.06019232 288.79893194 81.04911465 262.60900888 81.02757498 C239.35242828 81.00859324 216.0959353 81.01029178 192.83935547 81.02941895 C166.69663207 81.05084804 140.55395724 81.05932491 114.41122627 81.04696989 C111.62321092 81.04568706 108.83519555 81.0444357 106.04718018 81.04319763 C105.0174965 81.04272317 105.0174965 81.04272317 103.96701114 81.04223912 C93.61119314 81.03769359 83.2554103 81.04300219 72.89959717 81.05311584 C61.1218777 81.06456097 49.34424185 81.06129195 37.5665288 81.03999287 C31.55808932 81.02948496 25.5498276 81.02535645 19.54138947 81.03858948 C14.03920426 81.0505242 8.53736127 81.04393257 3.03520703 81.02267927 C1.04679681 81.01821785 -0.94164242 81.02046908 -2.93003392 81.03018242 C-17.50669657 81.09591734 -29.10231086 80.05897336 -40.15478516 69.50793457 C-48.96329469 60.2808028 -51.78052817 50.65749133 -51.62548828 38.14318848 C-51.15728044 26.3159595 -46.60641566 17.6668635 -38.08837891 9.53527832 C-26.53283571 -0.20114538 -14.34959862 -0.07009811 0 0 Z " fill="#FFFFFF" transform="translate(51.15478515625,159.4920654296875)"/>
<path d="M0 0 C2.05580906 -0.00461264 4.11161482 -0.01096799 6.16741371 -0.01890898 C11.79939815 -0.03557534 17.43111075 -0.02736803 23.06309605 -0.0149641 C29.14362473 -0.00590499 35.22410703 -0.01988764 41.30462646 -0.03088379 C52.52194158 -0.04763732 63.73916989 -0.04619293 74.95648319 -0.03523792 C85.3200581 -0.02516665 95.68360137 -0.0225531 106.04718018 -0.02732849 C106.73522836 -0.02763403 107.42327655 -0.02793957 108.13217469 -0.02825437 C110.92534635 -0.02949977 113.71851801 -0.03077338 116.51168964 -0.03209343 C142.70162119 -0.04432318 168.89149775 -0.03324551 195.08142081 -0.01170584 C218.33800141 0.0072759 241.59449439 0.00557736 264.85107422 -0.0135498 C290.99379762 -0.0349789 317.13647245 -0.04345577 343.27920341 -0.03110075 C346.06721877 -0.02981792 348.85523414 -0.02856656 351.64324951 -0.02732849 C352.67293319 -0.02685403 352.67293319 -0.02685403 353.72341855 -0.02636998 C364.07923655 -0.02182445 374.43501939 -0.02713305 384.79083252 -0.0372467 C396.56855199 -0.04869183 408.34618784 -0.04542281 420.12390089 -0.02412373 C426.13234036 -0.01361582 432.14060209 -0.00948731 438.14904022 -0.02272034 C443.65122543 -0.03465506 449.15306841 -0.02806343 454.65522265 -0.00681013 C456.64363287 -0.00234871 458.63207211 -0.00459994 460.62046361 -0.01431328 C475.19712626 -0.0800482 486.79274055 0.95689578 497.84521484 11.50793457 C506.65372437 20.73506634 509.47095786 30.35837781 509.31591797 42.87268066 C508.84771013 54.69990964 504.29684534 63.34900564 495.77880859 71.48059082 C484.22326539 81.21701452 472.04002831 81.08596725 457.69042969 81.01586914 C455.63462063 81.02048178 453.57881487 81.02683714 451.52301598 81.03477812 C445.89103154 81.05144449 440.25931894 81.04323717 434.62733364 81.03083324 C428.54680496 81.02177413 422.46632266 81.03575678 416.38580322 81.04675293 C405.1684881 81.06350647 393.9512598 81.06206207 382.7339465 81.05110706 C372.37037158 81.04103579 362.00682832 81.03842224 351.64324951 81.04319763 C350.95520132 81.04350317 350.26715314 81.04380871 349.558255 81.04412351 C346.76508333 81.04536891 343.97191168 81.04664252 341.17874005 81.04796257 C314.9888085 81.06019232 288.79893194 81.04911465 262.60900888 81.02757498 C239.35242828 81.00859324 216.0959353 81.01029178 192.83935547 81.02941895 C166.69663207 81.05084804 140.55395724 81.05932491 114.41122627 81.04696989 C111.62321092 81.04568706 108.83519555 81.0444357 106.04718018 81.04319763 C105.0174965 81.04272317 105.0174965 81.04272317 103.96701114 81.04223912 C93.61119314 81.03769359 83.2554103 81.04300219 72.89959717 81.05311584 C61.1218777 81.06456097 49.34424185 81.06129195 37.5665288 81.03999287 C31.55808932 81.02948496 25.5498276 81.02535645 19.54138947 81.03858948 C14.03920426 81.0505242 8.53736127 81.04393257 3.03520703 81.02267927 C1.04679681 81.01821785 -0.94164242 81.02046908 -2.93003392 81.03018242 C-17.50669657 81.09591734 -29.10231086 80.05897336 -40.15478516 69.50793457 C-48.96329469 60.2808028 -51.78052817 50.65749133 -51.62548828 38.14318848 C-51.15728044 26.3159595 -46.60641566 17.6668635 -38.08837891 9.53527832 C-26.53283571 -0.20114538 -14.34959862 -0.07009811 0 0 Z " fill="#FFFFFF" transform="translate(51.15478515625,-0.5079345703125)"/>
</svg>
