<?xml version="1.0" encoding="UTF-8"?>
<svg version="1.1" xmlns="http://www.w3.org/2000/svg" width="512" height="512">
<path d="M0 0 C0.87180908 0.00572021 1.74361816 0.01144043 2.6418457 0.01733398 C22.68663356 0.56719101 34.46646228 14.4215632 47.68383789 27.70678711 C49.23151384 29.25502787 50.77963165 30.80282704 52.32815552 32.35021973 C56.51173039 36.53322285 60.68912767 40.72234575 64.86541295 44.91262507 C69.23801489 49.29776395 73.6163144 53.67720672 77.9940033 58.05726624 C86.27443495 66.34390396 94.54975688 74.63562489 102.82323879 82.92920071 C112.24614936 92.37449747 121.67476604 101.81408723 131.10385907 111.25321186 C150.49224681 130.66248182 169.87348442 150.07887841 189.25 169.5 C193.58539718 167.83930948 196.47217 164.53718238 199.66201782 161.30157471 C200.30358114 160.65889798 200.94514445 160.01622125 201.60614908 159.35406947 C203.75864342 157.1954945 205.90389966 155.02986566 208.04931641 152.86425781 C209.58985252 151.31661027 211.13085938 149.7694312 212.67230225 148.22268677 C215.99369879 144.88817843 219.31206153 141.55068978 222.62822342 138.21097565 C227.87574549 132.92688701 233.1319377 127.65148157 238.38973999 122.37762451 C245.76472705 114.97880551 253.13764405 107.57793332 260.50732422 100.17382812 C260.97495624 99.70401586 261.44258827 99.23420359 261.92439096 98.75015458 C268.55164245 92.09172263 275.17588121 85.4303015 281.79889505 78.76765475 C290.51331698 70.00110063 299.23425102 61.24110232 307.96458948 52.49039721 C313.18855486 47.25337284 318.40338861 42.00747529 323.61158299 36.75476885 C326.86154712 33.48126952 330.1199158 30.2162368 333.38066864 26.9534874 C334.88614669 25.44373028 336.3881999 23.93054868 337.88646317 22.41363144 C350.7027569 9.44404671 361.65613609 0.35358029 380.5625 0 C399.33899785 0.07508402 410.63057325 10.49816975 423.22558594 23.05004883 C424.86729534 24.67985122 426.52679028 26.28998313 428.1875 27.90039062 C438.46224577 38.01552607 446.31609683 48.6312634 446.68139648 63.56713867 C446.72531624 81.97302797 440.13643093 92.72109947 427.44789124 105.5426178 C424.65514201 108.34858831 421.84973288 111.14165094 419.04321289 113.93383789 C417.49497213 115.48151384 415.94717296 117.02963165 414.39978027 118.57815552 C410.21677715 122.76173039 406.02765425 126.93912767 401.83737493 131.11541295 C397.45223605 135.48801489 393.07279328 139.8663144 388.69273376 144.2440033 C380.40609604 152.52443495 372.11437511 160.79975688 363.82079929 169.07323879 C354.37550253 178.49614936 344.93591277 187.92476604 335.49678814 197.35385907 C316.08751818 216.74224681 296.67112159 236.12348442 277.25 255.5 C278.91069052 259.83539718 282.21281762 262.72217 285.44842529 265.91201782 C286.09110202 266.55358114 286.73377875 267.19514445 287.39593053 267.85614908 C289.5545055 270.00864342 291.72013434 272.15389966 293.88574219 274.29931641 C295.43338973 275.83985252 296.9805688 277.38085938 298.52731323 278.92230225 C301.86182157 282.24369879 305.19931022 285.56206153 308.53902435 288.87822342 C313.82311299 294.12574549 319.09851843 299.3819377 324.37237549 304.63973999 C331.77119449 312.01472705 339.17206668 319.38764405 346.57617188 326.75732422 C347.04598414 327.22495624 347.51579641 327.69258827 347.99984542 328.17439096 C354.65827737 334.80164245 361.3196985 341.42588121 367.98234525 348.04889505 C376.74889937 356.76331698 385.50889768 365.48425102 394.25960279 374.21458948 C399.49662716 379.43855486 404.74252471 384.65338861 409.99523115 389.86158299 C413.26873048 393.11154712 416.5337632 396.3699158 419.7965126 399.63066864 C421.30626972 401.13614669 422.81945132 402.6381999 424.33636856 404.13646317 C435.9239702 415.58710784 446.47599134 426.63757904 446.71850586 443.84423828 C446.70827393 444.67938965 446.69804199 445.51454102 446.6875 446.375 C446.67920166 447.25269043 446.67090332 448.13038086 446.66235352 449.03466797 C446.21274593 466.3181597 435.861035 477.42311625 424.1628418 489.03320312 C422.43842118 490.74908338 420.7335704 492.4828841 419.02929688 494.21875 C408.76838839 504.55036962 398.14207194 512.70658691 383.00708008 513.01928711 C382.17974365 513.01292236 381.35240723 513.00655762 380.5 513 C379.62819092 512.99427979 378.75638184 512.98855957 377.8581543 512.98266602 C357.81336644 512.43280899 346.03353772 498.5784368 332.81616211 485.29321289 C331.26848616 483.74497213 329.72036835 482.19717296 328.17184448 480.64978027 C323.98826961 476.46677715 319.81087233 472.27765425 315.63458705 468.08737493 C311.26198511 463.70223605 306.8836856 459.32279328 302.5059967 454.94273376 C294.22556505 446.65609604 285.95024312 438.36437511 277.67676121 430.07079929 C268.25385064 420.62550253 258.82523396 411.18591277 249.39614093 401.74678814 C230.00775319 382.33751818 210.62651558 362.92112159 191.25 343.5 C186.91460282 345.16069052 184.02783 348.46281762 180.83798218 351.69842529 C180.19641886 352.34110202 179.55485555 352.98377875 178.89385092 353.64593053 C176.74135658 355.8045055 174.59610034 357.97013434 172.45068359 360.13574219 C170.91014748 361.68338973 169.36914062 363.2305688 167.82769775 364.77731323 C164.50630121 368.11182157 161.18793847 371.44931022 157.87177658 374.78902435 C152.62425451 380.07311299 147.3680623 385.34851843 142.11026001 390.62237549 C134.73527295 398.02119449 127.36235595 405.42206668 119.99267578 412.82617188 C119.52504376 413.29598414 119.05741173 413.76579641 118.57560904 414.24984542 C111.94835755 420.90827737 105.32411879 427.5696985 98.70110495 434.23234525 C89.98668302 442.99889937 81.26574898 451.75889768 72.53541052 460.50960279 C67.31144514 465.74662716 62.09661139 470.99252471 56.88841701 476.24523115 C53.63845288 479.51873048 50.3800842 482.7837632 47.11933136 486.0465126 C45.61385331 487.55626972 44.1118001 489.06945132 42.61353683 490.58636856 C31.19422794 502.14225963 20.15442225 512.66501025 3.00708008 513.01928711 C2.17974365 513.01292236 1.35240723 513.00655762 0.5 513 C-0.37180908 512.99427979 -1.24361816 512.98855957 -2.1418457 512.98266602 C-19.94428886 512.49431969 -30.88648752 501.73764681 -42.78051758 489.84008789 C-44.4348264 488.19016651 -46.10452486 486.55695913 -47.77539062 484.92382812 C-57.87176445 474.93934113 -65.99648584 464.34444178 -66.21850586 449.56225586 C-66.20827393 448.77858643 -66.19804199 447.99491699 -66.1875 447.1875 C-66.17920166 446.35935791 -66.17090332 445.53121582 -66.16235352 444.67797852 C-65.61787351 424.78798832 -52.72523548 413.03362923 -39.45141602 399.86083984 C-37.89310818 398.30337934 -36.33546284 396.74525573 -34.77842712 395.18652344 C-30.57078904 390.97802813 -26.35399623 386.77881704 -22.13544583 382.58126402 C-17.7204815 378.18511198 -13.3140674 373.78040641 -8.90672302 369.37661743 C-1.51499024 361.99313573 5.88195066 354.6149062 13.28295898 347.24072266 C20.90205697 339.64921105 28.51796089 332.05451823 36.12963867 324.45556641 C36.83479803 323.75158931 36.83479803 323.75158931 37.55420303 323.03339045 C39.91284357 320.67866534 42.27141858 318.3238746 44.62996948 315.96905971 C64.16049366 296.46985429 83.70169941 276.98138307 103.25 257.5 C101.58930948 253.16460282 98.28718238 250.27783 95.05157471 247.08798218 C94.40889798 246.44641886 93.76622125 245.80485555 93.10406947 245.14385092 C90.9454945 242.99135658 88.77986566 240.84610034 86.61425781 238.70068359 C85.06661027 237.16014748 83.5194312 235.61914062 81.97268677 234.07769775 C78.63817843 230.75630121 75.30068978 227.43793847 71.96097565 224.12177658 C66.67688701 218.87425451 61.40148157 213.6180623 56.12762451 208.36026001 C48.72880551 200.98527295 41.32793332 193.61235595 33.92382812 186.24267578 C33.45401586 185.77504376 32.98420359 185.30741173 32.50015458 184.82560904 C25.84172263 178.19835755 19.1803015 171.57411879 12.51765475 164.95110495 C3.75110063 156.23668302 -5.00889768 147.51574898 -13.75960279 138.78541052 C-18.99662716 133.56144514 -24.24252471 128.34661139 -29.49523115 123.13841701 C-32.76873048 119.88845288 -36.0337632 116.6300842 -39.2965126 113.36933136 C-40.80626972 111.86385331 -42.31945132 110.3618001 -43.83636856 108.86353683 C-55.4234151 97.4134407 -65.9774701 86.36194367 -66.21826172 69.15551758 C-66.20811035 68.32044678 -66.19795898 67.48537598 -66.1875 66.625 C-66.17992676 65.74803467 -66.17235352 64.87106934 -66.16455078 63.9675293 C-65.73037895 46.86210997 -55.87547092 36.09639768 -44.31103516 24.61499023 C-42.50533784 22.81781266 -40.71912959 21.00273071 -38.93359375 19.18554688 C-27.63576106 7.81321653 -16.57764763 -0.12753278 0 0 Z " fill="#FFFFFF" transform="translate(65.75,-0.5)"/>
</svg>
