<svg id="Layer_1" data-name="Layer 1" xmlns="http://www.w3.org/2000/svg" viewBox="0 0 67.7 56.81"><defs><style>.cls-1{fill:#fff;}</style></defs><title>Untitled-1</title><path class="cls-1" d="M213.39,176.59l-2.89,2.81-5.3,5.11a3.36,3.36,0,0,1-2.36.9c0-.28,0-.55,0-.83.15-2.48.32-5,.48-7.44.15-2.27.34-4.54.45-6.81a1.81,1.81,0,0,1,.69-1.39q7.44-6.65,14.83-13.34l13.36-12a2.73,2.73,0,0,0,.39-.44c.24-.39.08-.72-.38-.78a3,3,0,0,0-2,.57l-7.9,5-20.65,13c-2.18,1.38-4.36,2.75-6.53,4.14a.9.9,0,0,1-.84.12q-7.57-2.43-15.17-4.82a4.21,4.21,0,0,1-1.69-.91,1.41,1.41,0,0,1-.19-2,4.93,4.93,0,0,1,2.3-1.68c1.85-.76,3.72-1.47,5.58-2.19L202.61,147l16-6.18,17-6.58c1.69-.66,3.38-1.32,5.07-2a3,3,0,0,1,3.48.72,3.61,3.61,0,0,1,.77,2,10.3,10.3,0,0,1-.38,3L241.48,153c-1,4.78-2,9.56-3.06,14.35-.86,4-1.7,8-2.56,12-.47,2.2-.93,4.39-1.42,6.59A4.86,4.86,0,0,1,234,187a2.83,2.83,0,0,1-3.63,1.68,7.31,7.31,0,0,1-2.42-1.32l-14.36-10.62Z" transform="translate(-177.33 -132.03)"/></svg>