<svg id="Layer_1" data-name="Layer 1" xmlns="http://www.w3.org/2000/svg" viewBox="0 0 68.07 55.34"><defs><style>.cls-1{fill:#fff;}</style></defs><title>Untitled-1</title><path class="cls-1" d="M326.14,132.8A28.5,28.5,0,0,0,339,131.33a28.19,28.19,0,0,0,7.27-3.91l.37-.3c-6.35-.59-10.61-3.82-12.95-9.81a14.3,14.3,0,0,0,6.2-.2,14.1,14.1,0,0,1-8-5,13.79,13.79,0,0,1-3-8.77c1,.39,2,.83,3,1.12a19.06,19.06,0,0,0,3,.52,14.15,14.15,0,0,1-4-18.6,39.7,39.7,0,0,0,12.81,10.33,39,39,0,0,0,15.85,4.23c-.09-.74-.19-1.45-.25-2.16a14,14,0,0,1,23.82-10.93,1,1,0,0,0,.8.24A26.57,26.57,0,0,0,392,85l.38-.18a14.27,14.27,0,0,1-6,7.69,29.17,29.17,0,0,0,7.88-2.18,28.24,28.24,0,0,1-5.28,5.93c-.56.47-1.35.81-1.63,1.4a5.86,5.86,0,0,0,0,2.14,40.48,40.48,0,0,1-9.34,25.31,36.54,36.54,0,0,1-22,13.18,39.9,39.9,0,0,1-28.87-4.85c-.31-.18-.63-.34-.95-.51Z" transform="translate(-326.14 -83.79)"/></svg>